<svg id="Capa_1" enable-background="new 0 0 473.411 473.411" height="512" viewBox="0 0 473.411 473.411" width="512" xmlns="http://www.w3.org/2000/svg"><path d="m346.608 417.081c-67.787-32.146-109.901-101.262-109.901-180.375s42.113-148.231 109.901-180.376c4.999-2.369 8.264-7.339 8.437-12.873.188-5.533-2.731-10.705-7.556-13.407-36.696-20.5-71.89-30.05-110.783-30.05-130.517 0-236.705 106.188-236.705 236.706s106.188 236.706 236.706 236.706c38.892 0 74.086-9.55 110.782-30.05 4.825-2.702 7.744-7.874 7.556-13.407-.174-5.534-3.439-10.504-8.437-12.874zm-109.902 26.742c-114.206 0-207.118-92.911-207.118-207.118s92.912-207.117 207.118-207.117c25.341 0 48.269 4.479 71.731 14.245-63.15 41.031-101.32 112.516-101.32 192.872s38.17 151.842 101.32 192.872c-23.462 9.767-46.39 14.246-71.731 14.246z"/><path d="m414.234 88.761c-14.794 29.588-29.59 44.382-59.176 59.176 29.588 14.794 44.382 29.588 59.176 59.176 14.794-29.588 29.588-44.382 59.176-59.176-29.587-14.794-44.382-29.588-59.176-59.176z"/><path d="m340.264 236.705c-11.096 22.191-22.193 33.287-44.382 44.382 22.191 11.096 33.287 22.191 44.382 44.382 11.096-22.191 22.191-33.287 44.382-44.382-22.191-11.095-33.287-22.191-44.382-44.382z"/></svg>